<svg width="16" height="16" viewBox="0 0 16 16" fill="none" xmlns="http://www.w3.org/2000/svg">
<mask id="mask0_0_52" style="mask-type:luminance" maskUnits="userSpaceOnUse" x="1" y="1" width="14" height="14">
<path fill-rule="evenodd" clip-rule="evenodd" d="M1.31262 1.33333H14.0955V14.318H1.31262V1.33333Z" fill="white"/>
</mask>
<g mask="url(#mask0_0_52)">
<path fill-rule="evenodd" clip-rule="evenodd" d="M7.70435 2.33333C4.72271 2.33333 2.29697 4.79666 2.29697 7.82533C2.29697 10.854 4.72271 13.318 7.70435 13.318C10.6853 13.318 13.1111 10.854 13.1111 7.82533C13.1111 4.79666 10.6853 2.33333 7.70435 2.33333ZM7.70435 14.318C4.17994 14.318 1.3125 11.4053 1.3125 7.82533C1.3125 4.24533 4.17994 1.33333 7.70435 1.33333C11.2288 1.33333 14.0955 4.24533 14.0955 7.82533C14.0955 11.4053 11.2288 14.318 7.70435 14.318Z" fill="white"/>
</g>
<mask id="mask1_0_52" style="mask-type:luminance" maskUnits="userSpaceOnUse" x="11" y="11" width="4" height="5">
<path fill-rule="evenodd" clip-rule="evenodd" d="M11.3148 11.8046H14.6122V15.1478H11.3148V11.8046Z" fill="white"/>
</mask>
<g mask="url(#mask1_0_52)">
<path fill-rule="evenodd" clip-rule="evenodd" d="M14.1201 15.1478C13.9947 15.1478 13.8687 15.0991 13.7722 15.0018L11.4594 12.6591C11.2671 12.4638 11.2664 12.1471 11.4587 11.9518C11.6504 11.7551 11.9621 11.7565 12.1551 11.9505L14.4679 14.2938C14.6602 14.4891 14.6609 14.8051 14.4686 15.0005C14.3728 15.0991 14.2461 15.1478 14.1201 15.1478Z" fill="white"/>
</g>
</svg>
