<svg width="40" height="40" viewBox="0 0 40 40" fill="none" xmlns="http://www.w3.org/2000/svg">
<path fill-rule="evenodd" clip-rule="evenodd" d="M20 0C8.9541 0 0 8.95445 0 19.9997C0 31.0455 8.9541 40 20 40C31.0452 40 40 31.0457 40 19.9997C40 8.95445 31.0452 0 20 0ZM20.2337 31.6973C13.7871 31.6973 8.56572 26.4627 8.56572 19.9998C8.56572 13.5372 13.7871 8.30252 20.2337 8.30252C23.3842 8.30252 26.0162 9.46488 28.0367 11.3512L24.7472 14.6485V14.641C23.5223 13.4712 21.9692 12.8719 20.2337 12.8719C16.3833 12.8719 13.2549 16.1324 13.2549 19.9928C13.2549 23.8523 16.3834 27.1208 20.2337 27.1208C23.7268 27.1208 26.1038 25.1177 26.593 22.3688H20.2337V17.8067H31.2083C31.3543 18.5887 31.4342 19.4077 31.4342 20.263C31.4342 26.9453 26.9718 31.6973 20.2337 31.6973Z" fill="white"/>
</svg>
