<svg width="27" height="27" viewBox="0 0 27 27" fill="none" xmlns="http://www.w3.org/2000/svg">
<mask id="mask0_0_152" style="mask-type:luminance" maskUnits="userSpaceOnUse" x="2" y="1" width="24" height="25">
<path fill-rule="evenodd" clip-rule="evenodd" d="M2.25 1.12521H25.3123V25.3183H2.25V1.12521Z" fill="white"/>
</mask>
<g mask="url(#mask0_0_152)">
<path fill-rule="evenodd" clip-rule="evenodd" d="M15.4314 17.2027C16.7859 17.2027 17.8884 18.2973 17.8884 19.6428V23.1033C17.8884 23.3924 18.1201 23.6242 18.4171 23.6309H20.5614C22.2511 23.6309 23.6248 22.2742 23.6248 20.6069V10.7924C23.6169 10.2187 23.3435 9.67869 22.8744 9.31981L15.4573 3.40456C14.4616 2.61594 13.0689 2.61594 12.0699 3.40681L4.70338 9.31756C4.21626 9.68769 3.94288 10.2277 3.93726 10.8116V20.6069C3.93726 22.2742 5.31088 23.6309 7.00063 23.6309H9.16513C9.47001 23.6309 9.71751 23.3891 9.71751 23.0921C9.71751 23.0268 9.72538 22.9616 9.73888 22.8997V19.6428C9.73888 18.3052 10.8346 17.2117 12.179 17.2027H15.4314ZM20.5614 25.3184H18.3969C17.1571 25.2892 16.2009 24.3161 16.2009 23.1033V19.6428C16.2009 19.2277 15.8555 18.8902 15.4314 18.8902H12.1846C11.7695 18.8924 11.4264 19.2311 11.4264 19.6428V23.0921C11.4264 23.1764 11.4151 23.2574 11.3915 23.3339C11.27 24.4477 10.3183 25.3184 9.16513 25.3184H7.00063C4.38051 25.3184 2.24976 23.2046 2.24976 20.6069V10.8037C2.26101 9.68544 2.77626 8.66169 3.66613 7.98781L11.018 2.08719C12.6369 0.804687 14.8925 0.804687 16.508 2.08494L23.9128 7.99119C24.7824 8.65381 25.2976 9.67531 25.3123 10.7801V20.6069C25.3123 23.2046 23.1815 25.3184 20.5614 25.3184Z" fill="white"/>
</g>
</svg>
