<svg width="27" height="27" viewBox="0 0 27 27" fill="none" xmlns="http://www.w3.org/2000/svg">
<path fill-rule="evenodd" clip-rule="evenodd" d="M7.11866 9.39083L7.79704 17.4593C7.84654 18.0803 8.35391 18.5461 8.97379 18.5461H8.97829H21.2532H21.2554C21.8415 18.5461 22.3422 18.1096 22.4254 17.5302L23.4942 10.1513C23.5189 9.97583 23.475 9.80033 23.3682 9.65858C23.2624 9.51571 23.1072 9.42346 22.9317 9.39871C22.6965 9.40771 12.9394 9.39421 7.11866 9.39083ZM8.97154 20.2336C7.48991 20.2336 6.23554 19.0771 6.11516 17.5977L5.08466 5.34196L3.38929 5.04946C2.92916 4.96846 2.62204 4.53308 2.70079 4.07296C2.78179 3.61283 3.22616 3.31358 3.67616 3.38558L6.01616 3.79058C6.39304 3.85696 6.67991 4.16971 6.71254 4.55221L6.97691 7.70333C23.0374 7.71008 23.0892 7.71796 23.1668 7.72696C23.7934 7.81808 24.3447 8.14546 24.7204 8.64946C25.0962 9.15233 25.2537 9.77221 25.1637 10.3932L24.096 17.771C23.8947 19.175 22.6752 20.2336 21.2577 20.2336H21.252H8.98054H8.97154Z" fill="white"/>
<path fill-rule="evenodd" clip-rule="evenodd" d="M19.4486 13.5492H16.3301C15.8632 13.5492 15.4863 13.1712 15.4863 12.7054C15.4863 12.2397 15.8632 11.8617 16.3301 11.8617H19.4486C19.9143 11.8617 20.2923 12.2397 20.2923 12.7054C20.2923 13.1712 19.9143 13.5492 19.4486 13.5492Z" fill="white"/>
<path fill-rule="evenodd" clip-rule="evenodd" d="M8.48751 23.2896C8.82614 23.2896 9.09952 23.563 9.09952 23.9016C9.09952 24.2403 8.82614 24.5148 8.48751 24.5148C8.14776 24.5148 7.87439 24.2403 7.87439 23.9016C7.87439 23.563 8.14776 23.2896 8.48751 23.2896Z" fill="white"/>
<mask id="mask0_0_158" style="mask-type:luminance" maskUnits="userSpaceOnUse" x="7" y="23" width="3" height="2">
<path fill-rule="evenodd" clip-rule="evenodd" d="M7.8739 23.9012C7.8739 24.2409 8.14728 24.5154 8.48815 24.5154C8.82678 24.5154 9.10015 24.2409 9.10015 23.9012C9.10015 23.5626 8.82678 23.2892 8.48815 23.2892C8.14728 23.2892 7.8739 23.5626 7.8739 23.9012Z" fill="white"/>
</mask>
<g mask="url(#mask0_0_158)">
<path fill-rule="evenodd" clip-rule="evenodd" d="M2.25 30.1393H14.7251V17.6642H2.25V30.1393Z" fill="white"/>
</g>
<path fill-rule="evenodd" clip-rule="evenodd" d="M8.48639 23.6709C8.35926 23.6709 8.25576 23.7744 8.25576 23.9016C8.25576 24.1569 8.71814 24.1569 8.71814 23.9016C8.71814 23.7744 8.61351 23.6709 8.48639 23.6709ZM8.48639 25.3584C7.68314 25.3584 7.03064 24.7048 7.03064 23.9016C7.03064 23.0983 7.68314 22.4458 8.48639 22.4458C9.28964 22.4458 9.94326 23.0983 9.94326 23.9016C9.94326 24.7048 9.28964 25.3584 8.48639 25.3584Z" fill="white"/>
<path fill-rule="evenodd" clip-rule="evenodd" d="M21.1778 23.2897C21.5164 23.2897 21.7909 23.563 21.7909 23.9017C21.7909 24.2403 21.5164 24.5148 21.1778 24.5148C20.8381 24.5148 20.5647 24.2403 20.5647 23.9017C20.5647 23.563 20.8381 23.2897 21.1778 23.2897Z" fill="white"/>
<mask id="mask1_0_158" style="mask-type:luminance" maskUnits="userSpaceOnUse" x="20" y="23" width="2" height="2">
<path fill-rule="evenodd" clip-rule="evenodd" d="M20.5649 23.9012C20.5649 24.2409 20.8383 24.5154 21.1781 24.5154C21.5156 24.5154 21.7912 24.2409 21.7912 23.9012C21.7912 23.5626 21.5156 23.2892 21.1781 23.2892C20.8383 23.2892 20.5649 23.5626 20.5649 23.9012Z" fill="white"/>
</mask>
<g mask="url(#mask1_0_158)">
<path fill-rule="evenodd" clip-rule="evenodd" d="M14.9399 30.1393H27.4162V17.6642H14.9399V30.1393Z" fill="white"/>
</g>
<path fill-rule="evenodd" clip-rule="evenodd" d="M21.1768 23.6709C21.0508 23.6709 20.9473 23.7744 20.9473 23.9015C20.9484 24.1591 21.4097 24.1569 21.4086 23.9015C21.4086 23.7744 21.3039 23.6709 21.1768 23.6709ZM21.1768 25.3584C20.3736 25.3584 19.7211 24.7048 19.7211 23.9015C19.7211 23.0983 20.3736 22.4458 21.1768 22.4458C21.9812 22.4458 22.6348 23.0983 22.6348 23.9015C22.6348 24.7048 21.9812 25.3584 21.1768 25.3584Z" fill="white"/>
</svg>
